# xmcd CD database file
#
# Track frame offsets:
#	150
#	13073
#	41664
#	64862
#	77635
#	94201
#	115094
#	137694
#	154764
#	169158
#	180555
#	205231
#	218381
#	244135
#	259203
#
# Disc length: 3853 seconds
#
# Revision: 0
# Processed by: cddbd v1.5.2PL0 Copyright (c) Steve Scherf et al.
# Submitted via: CDex 1.70beta2
#
DISCID=ca0f0b0f
DTITLE=Various Artist - Cuban Gold CD3
DYEAR=2010
DGENRE=Country
TTITLE0=El platanal de Bartolo 
TTITLE1=El regreso de Maria
TTITLE2=Changui campanero
TTITLE3=Bilonga 
TTITLE4=La trova 
TTITLE5=Besame mucho 
TTITLE6=Ni por manteca ni mantequilla 
TTITLE7=Al vaiven de mi carreta 
TTITLE8=Mayeya, no jeuges con los santos
TTITLE9=Mulence y yo
TTITLE10=Tamalitos de Olga 
TTITLE11=La sitiera
TTITLE12=Como pomas de Jabon
TTITLE13=Mucho corazón
TTITLE14=Dueño de ti 
EXTD=YEAR: 2010
EXTT0=
EXTT1=
EXTT2=
EXTT3=
EXTT4=
EXTT5=
EXTT6=
EXTT7=
EXTT8=
EXTT9=
EXTT10=
EXTT11=
EXTT12=
EXTT13=
EXTT14=
PLAYORDER=
